<svg width="20" height="21" viewBox="0 0 20 21" fill="none" xmlns="http://www.w3.org/2000/svg">
<path fill-rule="evenodd" clip-rule="evenodd" d="M1.66699 10.5C1.66699 10.0398 2.13336 9.66667 2.70866 9.66667H17.292C17.8673 9.66667 18.3337 10.0398 18.3337 10.5C18.3337 10.9602 17.8673 11.3333 17.292 11.3333H2.70866C2.13336 11.3333 1.66699 10.9602 1.66699 10.5Z" fill="#FEFEFE"/>
<path fill-rule="evenodd" clip-rule="evenodd" d="M11.0771 4.07741C11.4025 3.75197 11.9302 3.75197 12.2556 4.07741L18.0889 9.91075C18.4144 10.2362 18.4144 10.7638 18.0889 11.0893L12.2556 16.9226C11.9302 17.248 11.4025 17.248 11.0771 16.9226C10.7516 16.5972 10.7516 16.0695 11.0771 15.7441L16.3212 10.5L11.0771 5.25592C10.7516 4.93049 10.7516 4.40285 11.0771 4.07741Z" fill="#FEFEFE"/>
</svg>
