<svg width="1374" height="734" viewBox="0 0 1374 734" fill="none" xmlns="http://www.w3.org/2000/svg">
<g filter="url(#filter0_f_282_853)">
<path d="M97 45.9999C70.4903 45.9999 48.8122 67.5204 50.8048 93.9551C55.8825 161.318 71.6353 227.552 97.5648 290.152C129.627 367.558 176.622 437.89 235.866 497.134C295.11 556.378 365.442 603.373 442.848 635.435C520.254 667.498 603.217 684 687 684C770.783 684 853.746 667.498 931.152 635.435C1008.56 603.373 1078.89 556.378 1138.13 497.134C1197.38 437.89 1244.37 367.558 1276.44 290.152C1302.36 227.552 1318.12 161.318 1323.2 93.9552C1325.19 67.5205 1303.51 46 1277 46H1270.92C1244.41 46 1223.14 67.533 1220.77 93.9363C1215.93 147.882 1202.92 200.877 1182.13 251.088C1155.19 316.109 1115.72 375.188 1065.95 424.953C1016.19 474.717 957.109 514.193 892.088 541.125C827.067 568.058 757.378 581.92 687 581.92C616.622 581.92 546.933 568.058 481.912 541.125C416.891 514.193 357.812 474.717 308.047 424.953C258.283 375.188 218.807 316.108 191.874 251.088C171.076 200.877 158.073 147.882 153.228 93.9363C150.857 67.5329 129.59 45.9999 103.08 45.9999H97Z" fill="#FEFEFE"/>
</g>
<defs>
<filter id="filter0_f_282_853" x="0.677734" y="-4.00006" width="1372.64" height="738" filterUnits="userSpaceOnUse" color-interpolation-filters="sRGB">
<feFlood flood-opacity="0" result="BackgroundImageFix"/>
<feBlend mode="normal" in="SourceGraphic" in2="BackgroundImageFix" result="shape"/>
<feGaussianBlur stdDeviation="25" result="effect1_foregroundBlur_282_853"/>
</filter>
</defs>
</svg>
