<svg width="40" height="40" viewBox="0 0 40 40" fill="none" xmlns="http://www.w3.org/2000/svg">
<path d="M14.033 17.6834C14.358 17.3584 14.7439 17.1005 15.1685 16.9246C15.5932 16.7487 16.0484 16.6582 16.508 16.6582C16.9677 16.6582 17.4228 16.7487 17.8475 16.9246C18.2721 17.1005 18.658 17.3584 18.983 17.6834C19.308 18.0084 19.5659 18.3943 19.7418 18.8189C19.9177 19.2436 20.0082 19.6987 20.0082 20.1584C20.0082 20.618 19.9177 21.0732 19.7418 21.4978C19.5659 21.9225 19.308 22.3084 18.983 22.6334L9.91634 31.6667L3.33301 33.3334L4.98301 26.75L14.033 17.6834Z" stroke="url(#paint0_linear_391_398)" stroke-width="2" stroke-linecap="round" stroke-linejoin="round"/>
<path d="M3.33301 19.1667V8.33333C3.33301 6.5 4.83301 5 6.66634 5H13.2163C13.7654 5.00284 14.3052 5.14125 14.7878 5.40293C15.2705 5.66461 15.681 6.04146 15.983 6.5L17.3497 8.5C17.6516 8.95854 18.0622 9.33539 18.5448 9.59707C19.0275 9.85875 19.5673 9.99716 20.1163 10H33.333C34.2171 10 35.0649 10.3512 35.69 10.9763C36.3152 11.6014 36.6663 12.4493 36.6663 13.3333V30C36.6663 30.8841 36.3152 31.7319 35.69 32.357C35.0649 32.9821 34.2171 33.3333 33.333 33.3333H17.4997" stroke="url(#paint1_linear_391_398)" stroke-width="2" stroke-linecap="round" stroke-linejoin="round"/>
<defs>
<linearGradient id="paint0_linear_391_398" x1="-5.25471" y1="14.8239" x2="29.4297" y2="33.3334" gradientUnits="userSpaceOnUse">
<stop stop-color="#322FFF"/>
<stop offset="1" stop-color="#B604EC"/>
</linearGradient>
<linearGradient id="paint1_linear_391_398" x1="-13.8337" y1="1.88333" x2="50.06" y2="41.9976" gradientUnits="userSpaceOnUse">
<stop stop-color="#322FFF"/>
<stop offset="1" stop-color="#B604EC"/>
</linearGradient>
</defs>
</svg>
