<svg width="24" height="24" viewBox="0 0 24 24" xmlns="http://www.w3.org/2000/svg">
<path d="M4 5C3.44772 5 3 5.44772 3 6V18C3 18.5523 3.44772 19 4 19H20C20.5523 19 21 18.5523 21 18V6C21 5.44772 20.5523 5 20 5H4ZM1 6C1 4.34315 2.34315 3 4 3H20C21.6569 3 23 4.34315 23 6V18C23 19.6569 21.6569 21 20 21H4C2.34315 21 1 19.6569 1 18V6Z"/>
<path d="M1.15612 6.4638C1.45232 5.99767 2.07032 5.85991 2.53645 6.15612L11.5033 11.8541C11.6524 11.9469 11.8245 11.9961 12.0001 11.9961C12.1758 11.9961 12.3479 11.9469 12.497 11.8541C12.4977 11.8536 12.4985 11.8532 12.4992 11.8527L21.4638 6.15612C21.9299 5.85991 22.5479 5.99767 22.8441 6.4638C23.1403 6.92993 23.0026 7.54793 22.5365 7.84414L13.5611 13.5476C13.0932 13.8407 12.5522 13.9961 12.0001 13.9961C11.448 13.9961 10.9071 13.8407 10.4392 13.5475L10.4338 13.5442L1.4638 7.84414C0.997665 7.54793 0.859911 6.92993 1.15612 6.4638Z"/>
</svg>
