<svg width="98" height="46" viewBox="0 0 98 46" fill="none" xmlns="http://www.w3.org/2000/svg">
<rect x="1" y="1" width="96" height="44" rx="15" stroke="url(#paint0_linear_326_5828)" stroke-width="2"/>
<path d="M26.92 29L28.296 26.144L24.24 17.48H25.832L29.04 24.624L32.32 17.48H33.84L28.464 29H26.92ZM34.7526 29V20.36H38.4326C38.6513 20.36 38.886 20.3733 39.1366 20.4C39.3926 20.4213 39.6246 20.4613 39.8326 20.52C40.2966 20.6427 40.678 20.896 40.9766 21.28C41.2806 21.6587 41.4326 22.1387 41.4326 22.72C41.4326 23.0453 41.382 23.328 41.2806 23.568C41.1846 23.808 41.046 24.016 40.8646 24.192C40.7846 24.272 40.6966 24.344 40.6006 24.408C40.5046 24.472 40.4086 24.5227 40.3126 24.56C40.4993 24.592 40.6886 24.664 40.8806 24.776C41.1846 24.9413 41.422 25.1733 41.5926 25.472C41.7686 25.7707 41.8566 26.152 41.8566 26.616C41.8566 27.2027 41.7153 27.688 41.4326 28.072C41.15 28.4507 40.7606 28.712 40.2646 28.856C40.0566 28.9147 39.8273 28.9547 39.5766 28.976C39.326 28.992 39.0833 29 38.8486 29H34.7526ZM36.1926 27.84H38.7686C38.8806 27.84 39.014 27.8293 39.1686 27.808C39.3286 27.7867 39.47 27.76 39.5926 27.728C39.87 27.648 40.07 27.4987 40.1926 27.28C40.3206 27.0613 40.3846 26.824 40.3846 26.568C40.3846 26.2267 40.2886 25.9493 40.0966 25.736C39.91 25.5227 39.662 25.3893 39.3526 25.336C39.2406 25.304 39.118 25.2853 38.9846 25.28C38.8566 25.2747 38.742 25.272 38.6406 25.272H36.1926V27.84ZM36.1926 24.096H38.3366C38.486 24.096 38.6433 24.088 38.8086 24.072C38.974 24.0507 39.118 24.016 39.2406 23.968C39.486 23.8773 39.6646 23.728 39.7766 23.52C39.894 23.3067 39.9526 23.0747 39.9526 22.824C39.9526 22.5467 39.8886 22.304 39.7606 22.096C39.638 21.8827 39.4486 21.736 39.1926 21.656C39.022 21.592 38.83 21.5573 38.6166 21.552C38.4086 21.5413 38.2753 21.536 38.2166 21.536H36.1926V24.096ZM43.6238 18.832V17.36H45.0478V18.832H43.6238ZM43.6238 29V20.36H45.0478V29H43.6238ZM51.1681 19.352C50.7681 19.352 50.4028 19.2533 50.0721 19.056C49.7415 18.8587 49.4775 18.5973 49.2801 18.272C49.0828 17.9413 48.9841 17.5733 48.9841 17.168H50.1361C50.1361 17.4507 50.2375 17.6933 50.4401 17.896C50.6428 18.0987 50.8855 18.2 51.1681 18.2C51.4561 18.2 51.6988 18.0987 51.8961 17.896C52.0988 17.6933 52.2001 17.4507 52.2001 17.168H53.3521C53.3521 17.5733 53.2535 17.9413 53.0561 18.272C52.8641 18.5973 52.6001 18.8587 52.2641 19.056C51.9335 19.2533 51.5681 19.352 51.1681 19.352ZM54.5201 20.36V29H53.1441V22.632L48.6161 29H47.4401V20.36H48.8161V26.64L53.3521 20.36H54.5201ZM59.0486 29V21.656H56.0406V20.36H63.4806V21.656H60.4726V29H59.0486ZM72.067 20.36V29H70.691V22.632L66.163 29H64.987V20.36H66.363V26.64L70.899 20.36H72.067Z" fill="url(#paint1_linear_326_5828)"/>
<defs>
<linearGradient id="paint0_linear_326_5828" x1="-50.47" y1="-5.06" x2="63.7644" y2="124.815" gradientUnits="userSpaceOnUse">
<stop stop-color="#322FFF"/>
<stop offset="1" stop-color="#B604EC"/>
</linearGradient>
<linearGradient id="paint1_linear_326_5828" x1="-1.75" y1="9.58" x2="52.3243" y2="75.164" gradientUnits="userSpaceOnUse">
<stop stop-color="#322FFF"/>
<stop offset="1" stop-color="#B604EC"/>
</linearGradient>
</defs>
</svg>
