<svg width="40" height="40" viewBox="0 0 40 40" fill="none" xmlns="http://www.w3.org/2000/svg">
<path d="M10 3.33337L5 10V33.3334C5 34.2174 5.35119 35.0653 5.97631 35.6904C6.60143 36.3155 7.44928 36.6667 8.33333 36.6667H31.6667C32.5507 36.6667 33.3986 36.3155 34.0237 35.6904C34.6488 35.0653 35 34.2174 35 33.3334V10L30 3.33337H10Z" stroke="url(#paint0_linear_322_5789)" stroke-width="2" stroke-linecap="round" stroke-linejoin="round"/>
<path d="M5 10H35" stroke="url(#paint1_linear_322_5789)" stroke-width="2" stroke-linecap="round" stroke-linejoin="round"/>
<path d="M26.6663 16.6666C26.6663 18.4347 25.964 20.1304 24.7137 21.3807C23.4635 22.6309 21.7678 23.3333 19.9997 23.3333C18.2316 23.3333 16.5359 22.6309 15.2856 21.3807C14.0354 20.1304 13.333 18.4347 13.333 16.6666" stroke="url(#paint2_linear_322_5789)" stroke-width="2" stroke-linecap="round" stroke-linejoin="round"/>
<defs>
<linearGradient id="paint0_linear_322_5789" x1="-10.45" y1="-0.333293" x2="54.6936" y2="30.9544" gradientUnits="userSpaceOnUse">
<stop stop-color="#322FFF"/>
<stop offset="1" stop-color="#B604EC"/>
</linearGradient>
<linearGradient id="paint1_linear_322_5789" x1="-10.45" y1="9.89" x2="-10.1384" y2="14.8782" gradientUnits="userSpaceOnUse">
<stop stop-color="#322FFF"/>
<stop offset="1" stop-color="#B604EC"/>
</linearGradient>
<linearGradient id="paint2_linear_322_5789" x1="6.46634" y1="15.9333" x2="23.1232" y2="33.7113" gradientUnits="userSpaceOnUse">
<stop stop-color="#322FFF"/>
<stop offset="1" stop-color="#B604EC"/>
</linearGradient>
</defs>
</svg>
