<svg width="24" height="24" viewBox="0 0 24 24" fill="none" xmlns="http://www.w3.org/2000/svg">
<path d="M12 0L12.2809 10.5877L16.5922 0.913445L12.8 10.8027L20.4853 3.51472L13.1973 11.2L23.0866 7.4078L13.4123 11.7191L24 12L13.4123 12.2809L23.0866 16.5922L13.1973 12.8L20.4853 20.4853L12.8 13.1973L16.5922 23.0866L12.2809 13.4123L12 24L11.7191 13.4123L7.4078 23.0866L11.2 13.1973L3.51472 20.4853L10.8027 12.8L0.913445 16.5922L10.5877 12.2809L0 12L10.5877 11.7191L0.913445 7.4078L10.8027 11.2L3.51472 3.51472L11.2 10.8027L7.4078 0.913445L11.7191 10.5877L12 0Z" fill="#4F4DCD"/>
</svg>
